<svg xmlns="http://www.w3.org/2000/svg" version="1.1" viewBox="-5.0 -10.0 110.0 135.0">
 <path d="m25.648 71.617h-1.6953c-5.5078 0-10.5-2.4453-14.168-6.1133-3.875-3.8789-6.2891-9.1406-6.2891-14.344 0-4.7891 1.3008-8.7578 3.5234-11.91 2.2539-3.1953 5.4375-5.5273 9.168-7.0195 0.71875-6.5039 3.7852-12.309 8.332-16.523 4.7383-4.3984 11.086-7.0859 18.055-7.0859 5.0078 0 9.6992 1.3906 13.703 3.8047 3.8672 2.332 7.0898 5.6289 9.3438 9.5547h0.050781c3.9023-0.007813 7.4883 1.3828 10.289 3.6875 2.5859 2.1328 4.5 5.0508 5.375 8.3906 4.1836 0.85547 7.8711 3.0898 10.559 6.207 2.8672 3.3281 4.6016 7.6523 4.6016 12.379 0 5.2344-2.125 9.9766-5.5586 13.41-3.4336 3.4375-8.1758 5.5625-13.414 5.5625h-3.1758v4.7305c0 0.82812-0.67188 1.5-1.5 1.5h-15.473v12.039c0 0.82812-0.67188 1.5-1.5 1.5h-11.754c-0.82812 0-1.5-0.67188-1.5-1.5v-12.039h-15.477c-0.82812 0-1.5-0.67188-1.5-1.5v-4.7305zm31.727 3.2305h13.973v-28.113h-20.082c-0.46094-0.003906-0.91406-0.21484-1.207-0.61719l-4.6016-6.2891h-16.812v35.02h13.977v-5.3125h-5.3477c-0.82813 0-1.5-0.67188-1.5-1.5 0-0.40625 0.16406-0.77734 0.42578-1.0469l12.629-15.785c0.51562-0.64453 1.4531-0.74609 2.0977-0.23438 0.097657 0.078125 0.17969 0.16406 0.25391 0.25781l12.703 15.875c0.51563 0.64453 0.41016 1.582-0.23437 2.0977-0.27344 0.21875-0.60547 0.32422-0.93359 0.32422l-5.3438 0.007812v5.3125zm-3 13.539v-20.352c0-0.82812 0.67188-1.5 1.5-1.5h3.7344l-9.6094-12.012-9.6094 12.012h3.7344c0.82812 0 1.5 0.67188 1.5 1.5v20.352h8.7539zm19.973-19.77h3.1758c4.4102 0 8.4062-1.7891 11.293-4.6797 2.8906-2.8867 4.6797-6.8828 4.6797-11.297 0-3.9883-1.457-7.6328-3.8633-10.422-2.4453-2.8359-5.8711-4.8047-9.7539-5.3789-0.61328-0.089844-1.1289-0.55859-1.2539-1.2031-0.58984-3.0664-2.25-5.7578-4.5664-7.668-2.2773-1.875-5.1992-3.0039-8.3906-3.0039l-0.82031 0.023437c-0.57031 0.039063-1.1406-0.25781-1.4219-0.79688-2.0039-3.8047-5.0234-6.9961-8.6953-9.2109-3.543-2.1406-7.707-3.3711-12.156-3.3711-6.1875 0-11.816 2.3828-16.016 6.2812-4.2266 3.9219-7.0156 9.3828-7.4727 15.488-0.03125 0.58594-0.41016 1.1211-0.99609 1.3281-3.5508 1.2656-6.5664 3.3477-8.6211 6.2617-1.875 2.6602-2.9727 6.0508-2.9727 10.188 0 4.4102 2.0742 8.8945 5.4023 12.227 3.1406 3.1367 7.3906 5.2305 12.055 5.2305h1.6953v-30.289c0-0.82812 0.67187-1.5 1.5-1.5h19.07c0.53125 0 1 0.27734 1.2656 0.69922l4.5391 6.207h20.824c0.82812 0 1.5 0.67188 1.5 1.5z"/>
<text x="0.0" y="117.5" font-size="5.0" font-weight="bold" font-family="Arbeit Regular, Helvetica, Arial-Unicode, Arial, Sans-serif" fill="#000000">Created by Soetarman Atmodjo</text><text x="0.0" y="122.5" font-size="5.0" font-weight="bold" font-family="Arbeit Regular, Helvetica, Arial-Unicode, Arial, Sans-serif" fill="#000000">from Noun Project</text></svg>